# xmcd CD database file
#
# Track frame offsets:
#	150
#	24562
#	44577
#	82117
#
# Disc length: 1417 seconds
#
# Revision: 3
# Processed by: cddbd v1.5.2PL0 Copyright (c) Steve Scherf et al.
# Submitted via: CDex 1.70beta3
#
DISCID=2e058704
DTITLE=荳ｭ蟲ｶ鄒主・ - 邏逶ｴ縺ｪ縺ｾ縺ｾ
DYEAR=2007
DGENRE=J-Pop
TTITLE0=邏逶ｴ縺ｪ縺ｾ縺ｾ
TTITLE1=FEVER
TTITLE2=邏逶ｴ縺ｪ縺ｾ縺ｾ (SUGIURUMN REMIX)
TTITLE3=邏逶ｴ縺ｪ縺ｾ縺ｾ (Instrumental)
EXTD=YEAR: 2007
EXTT0=
EXTT1=
EXTT2=
EXTT3=
PLAYORDER=
